<mxfile modified="2023-01-20T05:33:35.995Z" host="app.diagrams.net" agent="5.0 (Windows NT 10.0; Win64; x64) AppleWebKit/537.36 (KHTML, like Gecko) Chrome/109.0.0.0 Safari/537.36" etag="XvKk3ugElEBIwJmYiS-D" version="20.8.8" type="github">
  <diagram id="WI9T0HZ2pTsCkuznbFz-" name="Page-1">
    <mxGraphModel dx="1027" dy="928" grid="1" gridSize="10" guides="1" tooltips="1" connect="1" arrows="1" fold="1" page="1" pageScale="1" pageWidth="1169" pageHeight="827" math="0" shadow="0">
      <root>
        <mxCell id="0" />
        <mxCell id="1" parent="0" />
        <mxCell id="RLjyjs_sm2IHfBNOWAbh-109" value="" style="rounded=0;whiteSpace=wrap;html=1;labelBackgroundColor=#ffffff;fillColor=#f5f5f5;strokeColor=none;fontColor=#333333;" parent="1" vertex="1">
          <mxGeometry x="10" y="160" width="110" height="100" as="geometry" />
        </mxCell>
        <mxCell id="RLjyjs_sm2IHfBNOWAbh-113" value="" style="rounded=0;whiteSpace=wrap;html=1;labelBackgroundColor=#ffffff;fillColor=#f5f5f5;strokeColor=none;fontColor=#333333;" parent="1" vertex="1">
          <mxGeometry x="313" y="10" width="927" height="460" as="geometry" />
        </mxCell>
        <mxCell id="RLjyjs_sm2IHfBNOWAbh-143" style="edgeStyle=elbowEdgeStyle;rounded=0;orthogonalLoop=1;jettySize=auto;html=1;strokeColor=#808080;" parent="1" source="RLjyjs_sm2IHfBNOWAbh-113" target="RLjyjs_sm2IHfBNOWAbh-64" edge="1">
          <mxGeometry relative="1" as="geometry" />
        </mxCell>
        <mxCell id="RLjyjs_sm2IHfBNOWAbh-133" style="edgeStyle=elbowEdgeStyle;rounded=0;orthogonalLoop=1;jettySize=auto;elbow=vertical;html=1;strokeColor=#808080;exitX=1.02;exitY=0.505;exitDx=0;exitDy=0;exitPerimeter=0;" parent="1" source="RLjyjs_sm2IHfBNOWAbh-40" edge="1">
          <mxGeometry relative="1" as="geometry">
            <mxPoint x="337.5" y="60.14285714285734" as="targetPoint" />
          </mxGeometry>
        </mxCell>
        <mxCell id="RLjyjs_sm2IHfBNOWAbh-134" style="edgeStyle=orthogonalEdgeStyle;rounded=0;orthogonalLoop=1;jettySize=auto;elbow=vertical;html=1;strokeColor=#808080;" parent="1" edge="1">
          <mxGeometry relative="1" as="geometry">
            <mxPoint x="65" y="160" as="sourcePoint" />
            <Array as="points">
              <mxPoint x="65" y="150" />
              <mxPoint x="210" y="150" />
              <mxPoint x="210" y="60" />
            </Array>
            <mxPoint x="337.5" y="60.00000000000023" as="targetPoint" />
          </mxGeometry>
        </mxCell>
        <mxCell id="RLjyjs_sm2IHfBNOWAbh-135" style="edgeStyle=elbowEdgeStyle;rounded=0;orthogonalLoop=1;jettySize=auto;elbow=vertical;html=1;strokeColor=#808080;exitX=0.007;exitY=0.495;exitDx=0;exitDy=0;exitPerimeter=0;" parent="1" source="RLjyjs_sm2IHfBNOWAbh-42" target="RLjyjs_sm2IHfBNOWAbh-109" edge="1">
          <mxGeometry relative="1" as="geometry" />
        </mxCell>
        <mxCell id="RLjyjs_sm2IHfBNOWAbh-136" style="edgeStyle=elbowEdgeStyle;rounded=0;orthogonalLoop=1;jettySize=auto;elbow=vertical;html=1;strokeColor=#808080;exitX=1.007;exitY=0.516;exitDx=0;exitDy=0;exitPerimeter=0;" parent="1" source="RLjyjs_sm2IHfBNOWAbh-42" target="RLjyjs_sm2IHfBNOWAbh-113" edge="1">
          <mxGeometry relative="1" as="geometry" />
        </mxCell>
        <mxCell id="RLjyjs_sm2IHfBNOWAbh-141" style="edgeStyle=elbowEdgeStyle;rounded=0;orthogonalLoop=1;jettySize=auto;elbow=vertical;html=1;strokeColor=#808080;" parent="1" source="RLjyjs_sm2IHfBNOWAbh-43" target="RLjyjs_sm2IHfBNOWAbh-109" edge="1">
          <mxGeometry relative="1" as="geometry">
            <Array as="points">
              <mxPoint x="130" y="379" />
            </Array>
          </mxGeometry>
        </mxCell>
        <mxCell id="RLjyjs_sm2IHfBNOWAbh-142" style="edgeStyle=elbowEdgeStyle;rounded=0;orthogonalLoop=1;jettySize=auto;elbow=vertical;html=1;strokeColor=#808080;" parent="1" source="RLjyjs_sm2IHfBNOWAbh-43" target="RLjyjs_sm2IHfBNOWAbh-113" edge="1">
          <mxGeometry relative="1" as="geometry" />
        </mxCell>
        <mxCell id="RLjyjs_sm2IHfBNOWAbh-144" style="edgeStyle=elbowEdgeStyle;rounded=0;orthogonalLoop=1;jettySize=auto;elbow=vertical;html=1;entryX=-0.023;entryY=0.257;entryDx=0;entryDy=0;entryPerimeter=0;strokeColor=#808080;" parent="1" source="RLjyjs_sm2IHfBNOWAbh-65" target="RLjyjs_sm2IHfBNOWAbh-101" edge="1">
          <mxGeometry relative="1" as="geometry" />
        </mxCell>
        <mxCell id="RLjyjs_sm2IHfBNOWAbh-145" style="edgeStyle=elbowEdgeStyle;rounded=0;orthogonalLoop=1;jettySize=auto;elbow=vertical;html=1;entryX=0.25;entryY=0;entryDx=0;entryDy=0;strokeColor=#808080;" parent="1" source="RLjyjs_sm2IHfBNOWAbh-65" target="RLjyjs_sm2IHfBNOWAbh-66" edge="1">
          <mxGeometry relative="1" as="geometry" />
        </mxCell>
        <mxCell id="RLjyjs_sm2IHfBNOWAbh-111" style="edgeStyle=elbowEdgeStyle;rounded=0;orthogonalLoop=1;jettySize=auto;elbow=vertical;html=1;strokeColor=#808080;startArrow=classic;startFill=1;" parent="1" target="RLjyjs_sm2IHfBNOWAbh-68" edge="1">
          <mxGeometry relative="1" as="geometry">
            <mxPoint x="1132" y="610" as="sourcePoint" />
            <Array as="points">
              <mxPoint x="950" y="695" />
            </Array>
          </mxGeometry>
        </mxCell>
        <mxCell id="RLjyjs_sm2IHfBNOWAbh-40" value="Access from the&lt;br&gt;internet for extranet&lt;br&gt;scenarios" style="aspect=fixed;html=1;perimeter=none;align=center;shadow=0;dashed=0;image;fontSize=12;image=img/lib/mscae/PersonWithFriend.svg;labelBackgroundColor=#ffffff;fillColor=#4D9900;" parent="1" vertex="1">
          <mxGeometry x="40" y="35" width="50" height="49.5" as="geometry" />
        </mxCell>
        <mxCell id="RLjyjs_sm2IHfBNOWAbh-41" value="On-Premises&lt;br&gt;Users" style="aspect=fixed;html=1;perimeter=none;align=center;shadow=0;dashed=0;image;fontSize=12;image=img/lib/mscae/PersonWithFriend.svg;labelBackgroundColor=#ffffff;fillColor=#4D9900;" parent="1" vertex="1">
          <mxGeometry x="40" y="168.7499999999999" width="50" height="49.5" as="geometry" />
        </mxCell>
        <mxCell id="RLjyjs_sm2IHfBNOWAbh-42" value="Express&lt;br&gt;Route" style="aspect=fixed;html=1;perimeter=none;align=center;shadow=0;dashed=0;image;fontSize=12;image=img/lib/mscae/Express_Route.svg;labelBackgroundColor=#ffffff;fillColor=#4D9900;" parent="1" vertex="1">
          <mxGeometry x="190" y="178.25" width="50" height="30.5" as="geometry" />
        </mxCell>
        <mxCell id="RLjyjs_sm2IHfBNOWAbh-43" value="VPN Gateway" style="shape=image;verticalLabelPosition=bottom;labelBackgroundColor=#ffffff;verticalAlign=top;aspect=fixed;imageAspect=0;image=data:image/svg+xml,PHN2ZyB4bWxuczpjYz0iaHR0cDovL2NyZWF0aXZlY29tbW9ucy5vcmcvbnMjIiB4bWxuczpkYz0iaHR0cDovL3B1cmwub3JnL2RjL2VsZW1lbnRzLzEuMS8iIHhtbG5zOmlua3NjYXBlPSJodHRwOi8vd3d3Lmlua3NjYXBlLm9yZy9uYW1lc3BhY2VzL2lua3NjYXBlIiB4bWxuczpyZGY9Imh0dHA6Ly93d3cudzMub3JnLzE5OTkvMDIvMjItcmRmLXN5bnRheC1ucyMiIHhtbG5zOnNvZGlwb2RpPSJodHRwOi8vc29kaXBvZGkuc291cmNlZm9yZ2UubmV0L0RURC9zb2RpcG9kaS0wLmR0ZCIgeG1sbnM6c3ZnPSJodHRwOi8vd3d3LnczLm9yZy8yMDAwL3N2ZyIgeG1sbnM9Imh0dHA6Ly93d3cudzMub3JnLzIwMDAvc3ZnIiB4bWxuczp4bGluaz0iaHR0cDovL3d3dy53My5vcmcvMTk5OS94bGluayIgdmVyc2lvbj0iMS4xIiBpZD0ic3ZnMTIyNzAiIGlua3NjYXBlOnZlcnNpb249IjAuOTIuMyAoMjQwNTU0NiwgMjAxOC0wMy0xMSkiIHNvZGlwb2RpOmRvY25hbWU9InZwbl9nYXRld2F5LnN2ZyIgeD0iMHB4IiB5PSIwcHgiIHZpZXdCb3g9IjAgMCA4OS42OSAxMDAuMTEiIHN0eWxlPSJlbmFibGUtYmFja2dyb3VuZDpuZXcgMCAwIDg5LjY5IDEwMC4xMTsiIHhtbDpzcGFjZT0icHJlc2VydmUiPiYjeGE7PHNvZGlwb2RpOm5hbWVkdmlldyBib3JkZXJjb2xvcj0iIzY2NjY2NiIgYm9yZGVyb3BhY2l0eT0iMSIgZml0LW1hcmdpbi1ib3R0b209IjAiIGZpdC1tYXJnaW4tbGVmdD0iMCIgZml0LW1hcmdpbi1yaWdodD0iMCIgZml0LW1hcmdpbi10b3A9IjAiIGdyaWR0b2xlcmFuY2U9IjEwIiBndWlkZXRvbGVyYW5jZT0iMTAiIGlkPSJuYW1lZHZpZXcxMjI3MiIgaW5rc2NhcGU6Y3VycmVudC1sYXllcj0ic3ZnMTIyNzAiIGlua3NjYXBlOmN4PSI1OS43OTYiIGlua3NjYXBlOmN5PSI2Ni43NDMzMzEiIGlua3NjYXBlOnBhZ2VvcGFjaXR5PSIwIiBpbmtzY2FwZTpwYWdlc2hhZG93PSIyIiBpbmtzY2FwZTp3aW5kb3ctaGVpZ2h0PSIxMDE3IiBpbmtzY2FwZTp3aW5kb3ctbWF4aW1pemVkPSIxIiBpbmtzY2FwZTp3aW5kb3ctd2lkdGg9IjE5MjAiIGlua3NjYXBlOndpbmRvdy14PSItOCIgaW5rc2NhcGU6d2luZG93LXk9Ii04IiBpbmtzY2FwZTp6b29tPSI1LjIxOTMxOTciIG9iamVjdHRvbGVyYW5jZT0iMTAiIHBhZ2Vjb2xvcj0iI2ZmZmZmZiIgc2hvd2dyaWQ9ImZhbHNlIj4mI3hhOwk8L3NvZGlwb2RpOm5hbWVkdmlldz4mI3hhOzxnIGlkPSJnMTIyNjgiIHRyYW5zZm9ybT0idHJhbnNsYXRlKC0xMi4yNCwtMTIuMjM1NzAzKSI+JiN4YTsJPHRpdGxlIGlkPSJ0aXRsZTEyMjQzIj5QYWdlLTE8L3RpdGxlPiYjeGE7CTxnIGlkPSJncm91cDk0MzQtMSIgdHJhbnNmb3JtPSJ0cmFuc2xhdGUoMTIuMjQsLTEyLjI0KSI+JiN4YTsJCTx0aXRsZSBpZD0idGl0bGUxMjI0NSI+VlBOIEdhdGV3YXk8L3RpdGxlPiYjeGE7CQk8ZyBpZD0ic2hhcGU5NDM1LTIiIHRyYW5zZm9ybT0idHJhbnNsYXRlKDEwLjYxMTIsLTYxLjI2NDQpIj4mI3hhOwkJCTx0aXRsZSBpZD0idGl0bGUxMjI0NyI+U2hlZXQuOTQzNTwvdGl0bGU+JiN4YTsJCQk8cGF0aCBpZD0icGF0aDEyMjQ5IiBpbmtzY2FwZTpjb25uZWN0b3ItY3VydmF0dXJlPSIwIiBzdHlsZT0iZmlsbDojQTBBMUEyOyIgZD0iTTY4LjQ3LDEyMi43OHYtNC40YzAtOC44MS0zLjItMTcuMDItOC44MS0yMi44MyAgICAgYy01LjItNi0xNi44MS05LjgxLTI1LjQyLTkuODFzLTIwLjIzLDMuODEtMjUuNDMsOS44MUMzLjQsMTAxLjM2LDAsMTA5LjU3LDAsMTE4LjM4djQuNGwxNS44MiwxLjgxdi00LjAxICAgICBjMC01LjIsMS44LTExLjgxLDQuOC0xNS4yMWMzLTMuNDEsOS40MS01LjAxLDEzLjYyLTUuMjFjNC4yLDAsMTAuNjEsMS44LDEzLjYxLDUuMjFjMywzLjQsNC44MSw3LjgsNC44MSwxMi44MXY2LjQxICAgICBMNjguNDcsMTIyLjc4eiIvPiYjeGE7CQk8L2c+JiN4YTsJCTxnIGlkPSJzaGFwZTk0MzYtNCI+JiN4YTsJCQk8dGl0bGUgaWQ9InRpdGxlMTIyNTIiPlNoZWV0Ljk0MzY8L3RpdGxlPiYjeGE7CQkJPHBhdGggaWQ9InBhdGgxMjI1NCIgaW5rc2NhcGU6Y29ubmVjdG9yLWN1cnZhdHVyZT0iMCIgc3R5bGU9ImZpbGw6IzU5QjREOTsiIGQ9Ik0xMC42MSw2MS41MkMyLjgsNjEuNTIsMCw2Ni4xMiwwLDcyLjEzdjQxLjg0ICAgICBjMCw1LjIxLDMuMiwxMC42Miw5LjIxLDEwLjYyaDcxLjI3YzYuODEsMCw5LjIxLTUuNDEsOS4yMS0xMC42MlY3Mi4xM2MwLTUuNDEtMi4yLTEwLjYxLTEwLjYxLTEwLjYxTDEwLjYxLDYxLjUyeiIvPiYjeGE7CQk8L2c+JiN4YTsJCTxnIGlkPSJzaGFwZTk0MzctNiI+JiN4YTsJCQk8dGl0bGUgaWQ9InRpdGxlMTIyNTciPlNoZWV0Ljk0Mzc8L3RpdGxlPiYjeGE7CQkJPHBhdGggaWQ9InBhdGgxMjI1OSIgaW5rc2NhcGU6Y29ubmVjdG9yLWN1cnZhdHVyZT0iMCIgc3R5bGU9ImZpbGw6I0ZGRkZGRjtmaWxsLW9wYWNpdHk6MC4xNTsiIGQ9Ik02My4wNyw2MS41MkgxMC42MSAgICAgQzIuOCw2MS41MiwwLDY2LjEyLDAsNzIuMTN2NDEuODRjMCw1LjIxLDMuMiwxMC42Miw5LjIxLDEwLjYyaDEzLjQxTDYzLjA3LDYxLjUyeiIvPiYjeGE7CQk8L2c+JiN4YTsJCTxnIGlkPSJzaGFwZTk0MzgtOCIgdHJhbnNmb3JtPSJ0cmFuc2xhdGUoMTEuNDEyLC01LjYwNTg5KSI+JiN4YTsJCQk8dGl0bGUgaWQ9InRpdGxlMTIyNjIiPlNoZWV0Ljk0Mzg8L3RpdGxlPiYjeGE7CQkJPHBhdGggaWQ9InBhdGgxMjI2NCIgaW5rc2NhcGU6Y29ubmVjdG9yLWN1cnZhdHVyZT0iMCIgc3R5bGU9ImZpbGw6I0ZGRkZGRjsiIGQ9Ik0yMS40Miw4NC4zNGwxMS42MS0xMS42MWwxMS42MiwxMS42MWgtOC4yMSAgICAgdjguNDFoLTcuMDF2LTguNDFDMjkuNDMsODQuMzQsMjEuNDIsODQuMzQsMjEuNDIsODQuMzR6IE0wLDEwMS45NnYtNi44MWgxMi4wMXYtOGwxMS4yMSwxMS4yMWwtMTEuMjEsMTEuMjF2LTcuODFIMFYxMDEuOTZ6ICAgICAgTTMzLjAzLDEyNC41OWwtMTEuODEtMTEuODJoOC4yMXYtOC4yMWg3LjAxdjguMjFoOC40MUwzMy4wMywxMjQuNTl6IE02Ni4wNywxMDEuOTZINTQuMDZ2OC4wMUw0Mi42NCw5OC41NmwxMS40Mi0xMS40MXY4aDEyLjAxICAgICBWMTAxLjk2eiIvPiYjeGE7CQk8L2c+JiN4YTsJPC9nPiYjeGE7PC9nPiYjeGE7PC9zdmc+;fillColor=#4D9900;" parent="1" vertex="1">
          <mxGeometry x="180" y="352" width="54" height="60" as="geometry" />
        </mxCell>
        <mxCell id="RLjyjs_sm2IHfBNOWAbh-64" value="Office 365" style="shadow=0;dashed=0;html=1;strokeColor=none;labelPosition=center;verticalLabelPosition=bottom;verticalAlign=top;align=center;shape=mxgraph.mscae.cloud.cloud_office_365;fillColor=#DF3C01;labelBackgroundColor=#ffffff;" parent="1" vertex="1">
          <mxGeometry x="348.5" y="550" width="64" height="40" as="geometry" />
        </mxCell>
        <mxCell id="RLjyjs_sm2IHfBNOWAbh-65" value="Synchronize&lt;br&gt;Identities" style="shadow=0;dashed=0;html=1;strokeColor=none;labelPosition=center;verticalLabelPosition=bottom;verticalAlign=top;align=center;shape=mxgraph.mscae.general.continuous_cycle;fillColor=#7D7D7D;pointerEvents=1;labelBackgroundColor=#ffffff;" parent="1" vertex="1">
          <mxGeometry x="503" y="545" width="48" height="50" as="geometry" />
        </mxCell>
        <mxCell id="RLjyjs_sm2IHfBNOWAbh-66" value="Active&lt;br&gt;Directory" style="aspect=fixed;html=1;perimeter=none;align=center;shadow=0;dashed=0;image;fontSize=12;image=img/lib/mscae/Active_Directory.svg;labelBackgroundColor=#ffffff;fillColor=#4D9900;" parent="1" vertex="1">
          <mxGeometry x="502" y="670" width="50" height="50" as="geometry" />
        </mxCell>
        <mxCell id="RLjyjs_sm2IHfBNOWAbh-68" value="Azure Access&lt;br&gt;Control Service" style="pointerEvents=1;shadow=0;dashed=0;html=1;strokeColor=none;labelPosition=center;verticalLabelPosition=bottom;verticalAlign=top;align=center;shape=mxgraph.azure.access_control;fillColor=#0078D7;labelBackgroundColor=#ffffff;" parent="1" vertex="1">
          <mxGeometry x="727.4999999999998" y="670" width="50" height="50" as="geometry" />
        </mxCell>
        <mxCell id="RLjyjs_sm2IHfBNOWAbh-100" value="" style="group" parent="1" vertex="1" connectable="0">
          <mxGeometry x="715.4999999999994" y="541" width="74" height="65.49999999999994" as="geometry" />
        </mxCell>
        <mxCell id="RLjyjs_sm2IHfBNOWAbh-101" value="Azure Active&lt;br&gt;Directory Connect" style="aspect=fixed;html=1;perimeter=none;align=center;shadow=0;dashed=0;image;fontSize=12;image=img/lib/mscae/Virtual_Machine.svg;labelBackgroundColor=#ffffff;fillColor=#4D9900;part=1;" parent="RLjyjs_sm2IHfBNOWAbh-100" vertex="1">
          <mxGeometry y="10.499999999999947" width="60" height="55" as="geometry" />
        </mxCell>
        <mxCell id="RLjyjs_sm2IHfBNOWAbh-102" value="" style="shadow=0;dashed=0;strokeColor=none;html=1;labelPosition=center;verticalLabelPosition=bottom;verticalAlign=top;align=center;shape=mxgraph.mscae.other.windows;fillColor=#00188D;labelBackgroundColor=#ffffff;aspect=fixed;part=1;" parent="RLjyjs_sm2IHfBNOWAbh-100" vertex="1">
          <mxGeometry x="46" y="23.49999999999984" width="28" height="29" as="geometry" />
        </mxCell>
        <mxCell id="RLjyjs_sm2IHfBNOWAbh-103" value="Active Directory" style="group;labelPosition=center;verticalLabelPosition=bottom;align=center;verticalAlign=top;" parent="1" vertex="1" connectable="0">
          <mxGeometry x="873.5000000000005" y="541" width="74" height="70.49999999999994" as="geometry" />
        </mxCell>
        <mxCell id="RLjyjs_sm2IHfBNOWAbh-104" value="" style="aspect=fixed;html=1;perimeter=none;align=center;shadow=0;dashed=0;image;fontSize=12;image=img/lib/mscae/Virtual_Machine.svg;labelBackgroundColor=#ffffff;fillColor=#4D9900;part=1;" parent="RLjyjs_sm2IHfBNOWAbh-103" vertex="1">
          <mxGeometry y="15.499999999999947" width="60" height="55" as="geometry" />
        </mxCell>
        <mxCell id="RLjyjs_sm2IHfBNOWAbh-105" value="" style="shadow=0;dashed=0;strokeColor=none;html=1;labelPosition=center;verticalLabelPosition=bottom;verticalAlign=top;align=center;shape=mxgraph.mscae.other.windows;fillColor=#00188D;labelBackgroundColor=#ffffff;aspect=fixed;part=1;" parent="RLjyjs_sm2IHfBNOWAbh-103" vertex="1">
          <mxGeometry x="46" y="28.49999999999984" width="28" height="29" as="geometry" />
        </mxCell>
        <mxCell id="RLjyjs_sm2IHfBNOWAbh-106" value="Active Directory&#xa;with ADFS" style="group;labelPosition=center;verticalLabelPosition=bottom;align=center;verticalAlign=top;spacingTop=3;labelBackgroundColor=#ffffff;" parent="1" vertex="1" connectable="0">
          <mxGeometry x="1101.9999999999998" y="541" width="74" height="67.99999999999994" as="geometry" />
        </mxCell>
        <mxCell id="RLjyjs_sm2IHfBNOWAbh-107" value="" style="aspect=fixed;html=1;perimeter=none;align=center;shadow=0;dashed=0;image;fontSize=12;image=img/lib/mscae/Virtual_Machine.svg;labelBackgroundColor=#ffffff;fillColor=#4D9900;part=1;" parent="RLjyjs_sm2IHfBNOWAbh-106" vertex="1">
          <mxGeometry y="12.999999999999947" width="60" height="55" as="geometry" />
        </mxCell>
        <mxCell id="RLjyjs_sm2IHfBNOWAbh-108" value="" style="shadow=0;dashed=0;strokeColor=none;html=1;labelPosition=center;verticalLabelPosition=bottom;verticalAlign=top;align=center;shape=mxgraph.mscae.other.windows;fillColor=#00188D;labelBackgroundColor=#ffffff;aspect=fixed;part=1;" parent="RLjyjs_sm2IHfBNOWAbh-106" vertex="1">
          <mxGeometry x="46" y="25.99999999999984" width="28" height="29" as="geometry" />
        </mxCell>
        <mxCell id="RLjyjs_sm2IHfBNOWAbh-121" value="Server-to-Server Trust" style="text;html=1;resizable=0;points=[];autosize=1;align=left;verticalAlign=top;spacingTop=-4;" parent="1" vertex="1">
          <mxGeometry x="914" y="670" width="130" height="20" as="geometry" />
        </mxCell>
        <mxCell id="RLjyjs_sm2IHfBNOWAbh-122" value="9" style="ellipse;whiteSpace=wrap;html=1;aspect=fixed;fillColor=#4D9900;strokeColor=none;labelBackgroundColor=none;" parent="1" vertex="1">
          <mxGeometry x="100" y="23.5" width="23" height="23" as="geometry" />
        </mxCell>
        <mxCell id="RLjyjs_sm2IHfBNOWAbh-124" value="8" style="ellipse;whiteSpace=wrap;html=1;aspect=fixed;fillColor=#4D9900;strokeColor=none;labelBackgroundColor=none;" parent="1" vertex="1">
          <mxGeometry x="234" y="337.5" width="23" height="23" as="geometry" />
        </mxCell>
        <mxCell id="RLjyjs_sm2IHfBNOWAbh-127" value="10" style="ellipse;whiteSpace=wrap;html=1;aspect=fixed;fillColor=#4D9900;strokeColor=none;labelBackgroundColor=none;" parent="1" vertex="1">
          <mxGeometry x="412.5" y="533.5" width="23" height="23" as="geometry" />
        </mxCell>
        <mxCell id="RLjyjs_sm2IHfBNOWAbh-128" value="6" style="ellipse;whiteSpace=wrap;html=1;aspect=fixed;fillColor=#4D9900;strokeColor=none;labelBackgroundColor=none;" parent="1" vertex="1">
          <mxGeometry x="788" y="533.5" width="23" height="23" as="geometry" />
        </mxCell>
        <mxCell id="RLjyjs_sm2IHfBNOWAbh-129" value="7" style="ellipse;whiteSpace=wrap;html=1;aspect=fixed;fillColor=#4D9900;strokeColor=none;labelBackgroundColor=none;" parent="1" vertex="1">
          <mxGeometry x="1177.5" y="533.5" width="23" height="23" as="geometry" />
        </mxCell>
        <mxCell id="odhlPCGnQyj6GtQ5KhmG-1" value="Active&lt;br&gt;Directory" style="aspect=fixed;html=1;perimeter=none;align=center;shadow=0;dashed=0;image;fontSize=12;image=img/lib/mscae/Active_Directory.svg;labelBackgroundColor=#ffffff;fillColor=#4D9900;" vertex="1" parent="1">
          <mxGeometry x="123" y="1360" width="50" height="50" as="geometry" />
        </mxCell>
        <mxCell id="odhlPCGnQyj6GtQ5KhmG-4" style="edgeStyle=orthogonalEdgeStyle;rounded=0;orthogonalLoop=1;jettySize=auto;html=1;entryX=0;entryY=0.59;entryDx=0;entryDy=0;entryPerimeter=0;exitX=0.493;exitY=0.012;exitDx=0;exitDy=0;exitPerimeter=0;" edge="1" parent="1" source="odhlPCGnQyj6GtQ5KhmG-2" target="odhlPCGnQyj6GtQ5KhmG-3">
          <mxGeometry relative="1" as="geometry" />
        </mxCell>
        <mxCell id="odhlPCGnQyj6GtQ5KhmG-2" value="Apim UX&lt;br&gt;apimeu2apig[&lt;b&gt;d|c|p&lt;/b&gt;]02" style="sketch=0;aspect=fixed;html=1;points=[];align=center;image;fontSize=12;image=img/lib/mscae/API_Management.svg;" vertex="1" parent="1">
          <mxGeometry x="470" y="1364" width="50" height="42" as="geometry" />
        </mxCell>
        <mxCell id="odhlPCGnQyj6GtQ5KhmG-3" value="OAuth 2.0" style="verticalLabelPosition=bottom;html=1;verticalAlign=top;align=center;strokeColor=none;fillColor=#00BEF2;shape=mxgraph.azure.access_control;" vertex="1" parent="1">
          <mxGeometry x="665.5" y="1250" width="50" height="50" as="geometry" />
        </mxCell>
        <mxCell id="odhlPCGnQyj6GtQ5KhmG-6" value="&lt;div&gt;2. &lt;b&gt;id&lt;/b&gt;: oauth2-cbaf-ux-[dev|cer|pro]&lt;/div&gt;&lt;div&gt;4. &lt;b&gt;url&lt;/b&gt;: https://wapceu2cbaf[d|c|p]01.azurewebsites.net&lt;/div&gt;&lt;div&gt;6. &lt;b&gt;url de punto de conexión de autorización&lt;/b&gt;:&lt;/div&gt;&lt;div&gt;&amp;nbsp;- desa: https://login.microsoftonline.com/5d93ebcc-f769-4380-8b7e-289fc972da1b/oauth2/authorize&lt;/div&gt;&lt;div&gt;&amp;nbsp;Custodiada por COS con la etiqueta&amp;nbsp;&lt;/div&gt;&lt;div&gt;&amp;nbsp;- cert: CBAF-URL-AUTHORIZATION&lt;/div&gt;&lt;div&gt;&amp;nbsp;- prod: CBAF-URL-AUTHORIZATION-PRO&lt;/div&gt;&lt;div&gt;8. &lt;b&gt;url de punto de conexion del token&lt;/b&gt;&lt;/div&gt;&lt;div&gt;&amp;nbsp;- desa: https://login.microsoftonline.com/5d93ebcc-f769-4380-8b7e-289fc972da1b/oauth2/token&lt;/div&gt;&lt;div&gt;&amp;nbsp;Custodiada por COS con la etiqueta&amp;nbsp;&lt;/div&gt;&lt;div&gt;&amp;nbsp;- cert: CBAF-URL-TOKEN&lt;/div&gt;&lt;div&gt;&amp;nbsp;- prod: CBAF-URL-TOKEN-PRO&lt;/div&gt;&lt;div&gt;8.1 &lt;b&gt;Agregar parametro de cuerpo adicional&lt;/b&gt;&lt;/div&gt;&lt;div&gt;&amp;nbsp;- desa: 0cc6adf2-bc6f-491d-a817-a8a16bd9c072&lt;/div&gt;&lt;div&gt;&amp;nbsp;- cert: CBAF-CLIENT-ID-BACK&lt;/div&gt;&lt;div&gt;&amp;nbsp;- prod: CBAF-CLIENT-ID-BACK-PRO&lt;/div&gt;&lt;div&gt;10. &lt;b&gt;Id de cliente&lt;/b&gt;:&amp;nbsp;&lt;/div&gt;&lt;div&gt;&amp;nbsp;- desa: 095cbf0e-afe5-418b-962f-1ff54eb911c3&lt;/div&gt;&lt;div&gt;&amp;nbsp;- cert: CBAF-CLIENT-ID-FRONT&lt;/div&gt;&lt;div&gt;&amp;nbsp;- prod: CBAF-CLIENT-ID-FRONT-PRO&lt;/div&gt;&lt;div&gt;11. &lt;b&gt;Secreto de cliente&lt;/b&gt;:&amp;nbsp;&lt;/div&gt;&lt;div&gt;&amp;nbsp;- desa: iMc8Q~MtLmwV2F1dkwNN9teZ5tZhZfnDo68-GaYm&lt;/div&gt;&lt;div&gt;&amp;nbsp;- cert: CBAF-FRONT-SECRET-CER&lt;/div&gt;&lt;div&gt;&amp;nbsp;- prod: CBAF-FRONT-SECRET-PRO&lt;/div&gt;&lt;div&gt;12. &lt;b&gt;Copiar y custodiar el url redirect del paso&lt;/b&gt; 12 (Valor generado/copiado)&lt;/div&gt;&lt;div&gt;&amp;nbsp;desa: https://apimeu2apigd02.developer.azure-api.net/signin-oauth/code/callback/oauth2-cbaf-ux-dev *generado con COS en desa&lt;/div&gt;&lt;div&gt;&amp;nbsp;CBAF-URL-REDIRECT-APIMUX-CER *nuevos&lt;/div&gt;&lt;div&gt;&amp;nbsp;CBAF-URL-REDIRECT-APIMUX-PRO *nuevos&lt;/div&gt;" style="text;html=1;strokeColor=none;fillColor=none;align=left;verticalAlign=top;whiteSpace=wrap;rounded=0;fontSize=12;" vertex="1" parent="1">
          <mxGeometry x="809" y="850" width="660" height="440" as="geometry" />
        </mxCell>
      </root>
    </mxGraphModel>
  </diagram>
</mxfile>
